<svg width="21" height="21" viewBox="0 0 21 21" fill="none" xmlns="http://www.w3.org/2000/svg">
<path d="M12.4668 2.79297H18.0508V4.56738L19.7656 5.02734L19.3057 6.74121L20.8438 7.62988L18.0508 12.4658V18.0518H16.2754L15.8164 19.7666L14.1016 19.3066L13.2139 20.8447L8.37793 18.0518H2.79199V16.2764L1.07715 15.8174L1.53613 14.1016L0 13.2148L2.79199 8.37695V2.79297H4.56641L5.02637 1.07812L6.74121 1.53711L7.62891 0L12.4668 2.79297ZM7.49414 6.57715C5.33017 6.57729 3.57631 8.33114 3.57617 10.4951C3.57617 12.6592 5.33008 14.4139 7.49414 14.4141C9.65832 14.4141 11.4131 12.6593 11.4131 10.4951C11.4129 8.33106 9.65823 6.57715 7.49414 6.57715ZM14.3389 10.499C13.3223 10.4991 12.4981 11.3233 12.498 12.3398C12.498 13.3565 13.3222 14.1806 14.3389 14.1807C15.3556 14.1807 16.1797 13.3565 16.1797 12.3398C16.1796 11.3232 15.3555 10.499 14.3389 10.499Z" fill="white" style="fill:white;fill-opacity:1;"/>
</svg>
